<?xml version="1.0" standalone="no"?>
<!DOCTYPE svg PUBLIC "-//W3C//DTD SVG 20010904//EN"
 "http://www.w3.org/TR/2001/REC-SVG-20010904/DTD/svg10.dtd">
<svg version="1.0" xmlns="http://www.w3.org/2000/svg"
 width="120.000000pt" height="120.000000pt" viewBox="0 0 120.000000 120.000000"
 preserveAspectRatio="xMidYMid meet">

<g transform="translate(0.000000,120.000000) scale(0.100000,-0.100000)"
fill="white" stroke="none">
<path d="M450 1025 l0 -25 -125 0 -125 0 0 -50 c0 -47 2 -50 25 -50 l25 0 0
-340 0 -340 29 -32 29 -33 292 0 292 0 29 33 29 32 0 340 0 340 25 0 c23 0 25
3 25 50 l0 50 -125 0 -125 0 0 25 0 25 -150 0 -150 0 0 -25z m400 -450 l0
-325 -250 0 -250 0 0 325 0 325 250 0 250 0 0 -325z"/>
<path d="M450 575 l0 -225 50 0 50 0 0 225 0 225 -50 0 -50 0 0 -225z"/>
<path d="M650 575 l0 -225 50 0 50 0 0 225 0 225 -50 0 -50 0 0 -225z"/>
</g>
</svg>
